<svg width="313" height="36" viewBox="0 0 313 36" fill="none" xmlns="http://www.w3.org/2000/svg">
<path d="M40.1009 28C39.8809 28 39.7009 27.93 39.5609 27.79C39.4209 27.65 39.3509 27.47 39.3509 27.25V7.75C39.3509 7.53 39.4209 7.35 39.5609 7.21C39.7009 7.07 39.8809 7 40.1009 7H42.8309C43.1309 7 43.3509 7.07 43.4909 7.21C43.6309 7.35 43.7209 7.46 43.7609 7.54L51.7709 20.05V7.75C51.7709 7.53 51.8409 7.35 51.9809 7.21C52.1209 7.07 52.2909 7 52.4909 7H55.5509C55.7709 7 55.9509 7.07 56.0909 7.21C56.2309 7.35 56.3009 7.53 56.3009 7.75V27.25C56.3009 27.45 56.2309 27.63 56.0909 27.79C55.9509 27.93 55.7709 28 55.5509 28H52.7909C52.4909 28 52.2709 27.93 52.1309 27.79C52.0109 27.63 51.9209 27.52 51.8609 27.46L43.8809 15.34V27.25C43.8809 27.47 43.8109 27.65 43.6709 27.79C43.5309 27.93 43.3509 28 43.1309 28H40.1009ZM59.5076 28C59.3276 28 59.1776 27.94 59.0576 27.82C58.9376 27.68 58.8776 27.53 58.8776 27.37C58.8776 27.27 58.8876 27.18 58.9076 27.1L66.0476 7.81C66.1076 7.59 66.2276 7.4 66.4076 7.24C66.5876 7.08 66.8376 7 67.1576 7H70.9976C71.3176 7 71.5676 7.08 71.7476 7.24C71.9276 7.4 72.0476 7.59 72.1076 7.81L79.2476 27.1C79.2676 27.18 79.2776 27.27 79.2776 27.37C79.2776 27.53 79.2176 27.68 79.0976 27.82C78.9776 27.94 78.8276 28 78.6476 28H75.5276C75.2276 28 75.0076 27.93 74.8676 27.79C74.7276 27.65 74.6376 27.52 74.5976 27.4L73.3076 24.04H64.8476L63.5576 27.4C63.5176 27.52 63.4276 27.65 63.2876 27.79C63.1476 27.93 62.9276 28 62.6276 28H59.5076ZM65.9576 20.17H72.1676L69.0776 11.53L65.9576 20.17ZM82.6106 28C82.4106 28 82.2306 27.93 82.0706 27.79C81.9306 27.65 81.8606 27.47 81.8606 27.25V7.75C81.8606 7.53 81.9306 7.35 82.0706 7.21C82.2306 7.07 82.4106 7 82.6106 7H85.4006C85.7006 7 85.9206 7.08 86.0606 7.24C86.2206 7.4 86.3306 7.52 86.3906 7.6L91.9106 17.77L97.4906 7.6C97.5306 7.52 97.6206 7.4 97.7606 7.24C97.9206 7.08 98.1506 7 98.4506 7H101.241C101.461 7 101.641 7.07 101.781 7.21C101.921 7.35 101.991 7.53 101.991 7.75V27.25C101.991 27.47 101.921 27.65 101.781 27.79C101.641 27.93 101.461 28 101.241 28H98.1806C97.9806 28 97.8106 27.93 97.6706 27.79C97.5306 27.65 97.4606 27.47 97.4606 27.25V15.13L93.6506 22.27C93.5506 22.45 93.4206 22.61 93.2606 22.75C93.1006 22.89 92.8906 22.96 92.6306 22.96H91.2206C90.9606 22.96 90.7506 22.89 90.5906 22.75C90.4306 22.61 90.3006 22.45 90.2006 22.27L86.3906 15.13V27.25C86.3906 27.47 86.3206 27.65 86.1806 27.79C86.0406 27.93 85.8706 28 85.6706 28H82.6106ZM105.211 28C105.031 28 104.881 27.94 104.761 27.82C104.641 27.68 104.581 27.53 104.581 27.37C104.581 27.27 104.591 27.18 104.611 27.1L111.751 7.81C111.811 7.59 111.931 7.4 112.111 7.24C112.291 7.08 112.541 7 112.861 7H116.701C117.021 7 117.271 7.08 117.451 7.24C117.631 7.4 117.751 7.59 117.811 7.81L124.951 27.1C124.971 27.18 124.981 27.27 124.981 27.37C124.981 27.53 124.921 27.68 124.801 27.82C124.681 27.94 124.531 28 124.351 28H121.231C120.931 28 120.711 27.93 120.571 27.79C120.431 27.65 120.341 27.52 120.301 27.4L119.011 24.04H110.551L109.261 27.4C109.221 27.52 109.131 27.65 108.991 27.79C108.851 27.93 108.631 28 108.331 28H105.211ZM111.661 20.17H117.871L114.781 11.53L111.661 20.17ZM128.314 28C128.094 28 127.914 27.93 127.774 27.79C127.634 27.65 127.564 27.47 127.564 27.25V7.75C127.564 7.53 127.634 7.35 127.774 7.21C127.914 7.07 128.094 7 128.314 7H131.044C131.344 7 131.564 7.07 131.704 7.21C131.844 7.35 131.934 7.46 131.974 7.54L139.984 20.05V7.75C139.984 7.53 140.054 7.35 140.194 7.21C140.334 7.07 140.504 7 140.704 7H143.764C143.984 7 144.164 7.07 144.304 7.21C144.444 7.35 144.514 7.53 144.514 7.75V27.25C144.514 27.45 144.444 27.63 144.304 27.79C144.164 27.93 143.984 28 143.764 28H141.004C140.704 28 140.484 27.93 140.344 27.79C140.224 27.63 140.134 27.52 140.074 27.46L132.094 15.34V27.25C132.094 27.47 132.024 27.65 131.884 27.79C131.744 27.93 131.564 28 131.344 28H128.314ZM157.38 28.3C155.5 28.3 153.89 27.99 152.55 27.37C151.23 26.73 150.2 25.81 149.46 24.61C148.74 23.39 148.35 21.92 148.29 20.2C148.27 19.34 148.26 18.42 148.26 17.44C148.26 16.46 148.27 15.53 148.29 14.65C148.35 12.97 148.74 11.54 149.46 10.36C150.2 9.18 151.24 8.28 152.58 7.66C153.94 7.02 155.54 6.7 157.38 6.7C158.86 6.7 160.16 6.89 161.28 7.27C162.4 7.65 163.34 8.15 164.1 8.77C164.86 9.37 165.44 10.03 165.84 10.75C166.24 11.47 166.45 12.16 166.47 12.82C166.47 13 166.41 13.16 166.29 13.3C166.17 13.42 166.01 13.48 165.81 13.48H162.09C161.89 13.48 161.73 13.44 161.61 13.36C161.51 13.28 161.42 13.16 161.34 13C161.2 12.64 160.97 12.28 160.65 11.92C160.35 11.54 159.94 11.22 159.42 10.96C158.9 10.7 158.22 10.57 157.38 10.57C156.12 10.57 155.12 10.9 154.38 11.56C153.66 12.22 153.27 13.3 153.21 14.8C153.15 16.52 153.15 18.27 153.21 20.05C153.27 21.61 153.67 22.73 154.41 23.41C155.17 24.09 156.18 24.43 157.44 24.43C158.26 24.43 158.99 24.29 159.63 24.01C160.29 23.71 160.81 23.25 161.19 22.63C161.57 22.01 161.76 21.22 161.76 20.26V19.51H158.49C158.29 19.51 158.12 19.44 157.98 19.3C157.84 19.14 157.77 18.96 157.77 18.76V16.84C157.77 16.62 157.84 16.44 157.98 16.3C158.12 16.16 158.29 16.09 158.49 16.09H165.84C166.06 16.09 166.24 16.16 166.38 16.3C166.52 16.44 166.59 16.62 166.59 16.84V20.11C166.59 21.83 166.21 23.3 165.45 24.52C164.71 25.74 163.64 26.68 162.24 27.34C160.86 27.98 159.24 28.3 157.38 28.3ZM168.58 28C168.4 28 168.25 27.94 168.13 27.82C168.01 27.68 167.95 27.53 167.95 27.37C167.95 27.27 167.96 27.18 167.98 27.1L175.12 7.81C175.18 7.59 175.3 7.4 175.48 7.24C175.66 7.08 175.91 7 176.23 7H180.07C180.39 7 180.64 7.08 180.82 7.24C181 7.4 181.12 7.59 181.18 7.81L188.32 27.1C188.34 27.18 188.35 27.27 188.35 27.37C188.35 27.53 188.29 27.68 188.17 27.82C188.05 27.94 187.9 28 187.72 28H184.6C184.3 28 184.08 27.93 183.94 27.79C183.8 27.65 183.71 27.52 183.67 27.4L182.38 24.04H173.92L172.63 27.4C172.59 27.52 172.5 27.65 172.36 27.79C172.22 27.93 172 28 171.7 28H168.58ZM175.03 20.17H181.24L178.15 11.53L175.03 20.17ZM191.683 28C191.463 28 191.283 27.93 191.143 27.79C191.003 27.65 190.933 27.47 190.933 27.25V7.75C190.933 7.53 191.003 7.35 191.143 7.21C191.283 7.07 191.463 7 191.683 7H194.413C194.713 7 194.933 7.07 195.073 7.21C195.213 7.35 195.303 7.46 195.343 7.54L203.353 20.05V7.75C203.353 7.53 203.423 7.35 203.563 7.21C203.703 7.07 203.873 7 204.073 7H207.133C207.353 7 207.533 7.07 207.673 7.21C207.813 7.35 207.883 7.53 207.883 7.75V27.25C207.883 27.45 207.813 27.63 207.673 27.79C207.533 27.93 207.353 28 207.133 28H204.373C204.073 28 203.853 27.93 203.713 27.79C203.593 27.63 203.503 27.52 203.443 27.46L195.463 15.34V27.25C195.463 27.47 195.393 27.65 195.253 27.79C195.113 27.93 194.933 28 194.713 28H191.683ZM217.69 28C217.47 28 217.29 27.93 217.15 27.79C217.01 27.65 216.94 27.47 216.94 27.25V11.17H211.48C211.28 11.17 211.11 11.1 210.97 10.96C210.83 10.82 210.76 10.65 210.76 10.45V7.75C210.76 7.53 210.83 7.35 210.97 7.21C211.11 7.07 211.28 7 211.48 7H227.2C227.42 7 227.6 7.07 227.74 7.21C227.88 7.35 227.95 7.53 227.95 7.75V10.45C227.95 10.65 227.88 10.82 227.74 10.96C227.6 11.1 227.42 11.17 227.2 11.17H221.77V27.25C221.77 27.47 221.7 27.65 221.56 27.79C221.42 27.93 221.24 28 221.02 28H217.69ZM231.585 28C231.365 28 231.185 27.93 231.045 27.79C230.905 27.65 230.835 27.47 230.835 27.25V7.75C230.835 7.53 230.905 7.35 231.045 7.21C231.185 7.07 231.365 7 231.585 7H239.535C242.035 7 244.005 7.58 245.445 8.74C246.885 9.88 247.605 11.53 247.605 13.69C247.605 15.15 247.255 16.37 246.555 17.35C245.855 18.33 244.915 19.06 243.735 19.54L247.965 27.04C248.025 27.16 248.055 27.27 248.055 27.37C248.055 27.53 247.995 27.68 247.875 27.82C247.755 27.94 247.605 28 247.425 28H244.095C243.735 28 243.465 27.91 243.285 27.73C243.105 27.53 242.975 27.35 242.895 27.19L239.235 20.32H235.605V27.25C235.605 27.47 235.535 27.65 235.395 27.79C235.255 27.93 235.075 28 234.855 28H231.585ZM235.605 16.51H239.445C240.545 16.51 241.355 16.26 241.875 15.76C242.415 15.26 242.685 14.56 242.685 13.66C242.685 12.76 242.425 12.05 241.905 11.53C241.385 11.01 240.565 10.75 239.445 10.75H235.605V16.51ZM250.054 28C249.874 28 249.724 27.94 249.604 27.82C249.484 27.68 249.424 27.53 249.424 27.37C249.424 27.27 249.434 27.18 249.454 27.1L256.594 7.81C256.654 7.59 256.774 7.4 256.954 7.24C257.134 7.08 257.384 7 257.704 7H261.544C261.864 7 262.114 7.08 262.294 7.24C262.474 7.4 262.594 7.59 262.654 7.81L269.794 27.1C269.814 27.18 269.824 27.27 269.824 27.37C269.824 27.53 269.764 27.68 269.644 27.82C269.524 27.94 269.374 28 269.194 28H266.074C265.774 28 265.554 27.93 265.414 27.79C265.274 27.65 265.184 27.52 265.144 27.4L263.854 24.04H255.394L254.104 27.4C254.064 27.52 253.974 27.65 253.834 27.79C253.694 27.93 253.474 28 253.174 28H250.054ZM256.504 20.17H262.714L259.624 11.53L256.504 20.17ZM273.158 28C272.938 28 272.758 27.93 272.618 27.79C272.478 27.65 272.408 27.47 272.408 27.25V7.75C272.408 7.53 272.478 7.35 272.618 7.21C272.758 7.07 272.938 7 273.158 7H275.888C276.188 7 276.408 7.07 276.548 7.21C276.688 7.35 276.778 7.46 276.818 7.54L284.828 20.05V7.75C284.828 7.53 284.898 7.35 285.038 7.21C285.178 7.07 285.348 7 285.548 7H288.608C288.828 7 289.008 7.07 289.148 7.21C289.288 7.35 289.358 7.53 289.358 7.75V27.25C289.358 27.45 289.288 27.63 289.148 27.79C289.008 27.93 288.828 28 288.608 28H285.848C285.548 28 285.328 27.93 285.188 27.79C285.068 27.63 284.978 27.52 284.918 27.46L276.938 15.34V27.25C276.938 27.47 276.868 27.65 276.728 27.79C276.588 27.93 276.408 28 276.188 28H273.158ZM301.354 28.3C299.434 28.3 297.824 28.02 296.524 27.46C295.244 26.9 294.274 26.17 293.614 25.27C292.954 24.37 292.604 23.41 292.564 22.39C292.564 22.23 292.624 22.09 292.744 21.97C292.864 21.83 293.014 21.76 293.194 21.76H296.404C296.664 21.76 296.864 21.82 297.004 21.94C297.144 22.04 297.274 22.17 297.394 22.33C297.534 22.67 297.754 23 298.054 23.32C298.374 23.64 298.804 23.91 299.344 24.13C299.884 24.33 300.554 24.43 301.354 24.43C302.654 24.43 303.624 24.22 304.264 23.8C304.924 23.38 305.254 22.81 305.254 22.09C305.254 21.57 305.074 21.15 304.714 20.83C304.374 20.51 303.824 20.22 303.064 19.96C302.324 19.7 301.334 19.42 300.094 19.12C298.594 18.8 297.314 18.39 296.254 17.89C295.214 17.37 294.424 16.71 293.884 15.91C293.364 15.09 293.104 14.08 293.104 12.88C293.104 11.68 293.434 10.62 294.094 9.7C294.754 8.76 295.684 8.03 296.884 7.51C298.084 6.97 299.514 6.7 301.174 6.7C302.514 6.7 303.694 6.88 304.714 7.24C305.754 7.6 306.614 8.07 307.294 8.65C307.994 9.23 308.524 9.85 308.884 10.51C309.244 11.17 309.434 11.81 309.454 12.43C309.454 12.59 309.394 12.74 309.274 12.88C309.154 13 309.004 13.06 308.824 13.06H305.464C305.264 13.06 305.084 13.02 304.924 12.94C304.764 12.86 304.634 12.72 304.534 12.52C304.414 12 304.054 11.55 303.454 11.17C302.874 10.77 302.114 10.57 301.174 10.57C300.194 10.57 299.414 10.75 298.834 11.11C298.274 11.47 297.994 12.02 297.994 12.76C297.994 13.24 298.134 13.65 298.414 13.99C298.714 14.31 299.204 14.6 299.884 14.86C300.584 15.1 301.504 15.37 302.644 15.67C304.404 16.03 305.834 16.46 306.934 16.96C308.034 17.46 308.844 18.11 309.364 18.91C309.884 19.69 310.144 20.68 310.144 21.88C310.144 23.22 309.764 24.37 309.004 25.33C308.264 26.29 307.234 27.03 305.914 27.55C304.614 28.05 303.094 28.3 301.354 28.3Z" fill="white"/>
<rect y="7.89111" width="9.78261" height="9.78261" transform="rotate(-30 0 7.89111)" fill="#FFB82B"/>
<rect x="4.13086" y="18" width="10" height="10" fill="#FFB82B"/>
<rect x="18.1309" y="5" width="10" height="10" fill="#FFB82B"/>
<rect x="18.1309" y="18" width="10" height="10" fill="#FFB82B"/>
</svg>
