<svg width="73" height="73" viewBox="0 0 73 73" fill="none" xmlns="http://www.w3.org/2000/svg">
<g id="&#34;">
<circle id="Background" cx="36.4252" cy="36.5" r="36.4252" fill="url(#paint0_linear_1_337)"/>
<path id="&#226;&#128;&#156;" d="M34.2686 25.8245C34.7697 25.8245 35.1991 26.0035 35.557 26.3614C35.8433 26.7192 35.9865 27.1487 35.9865 27.6497C35.9865 28.2224 35.8791 28.795 35.6644 29.3676L29.974 44.0767C29.6161 44.7925 29.2582 45.3651 28.9003 45.7946C28.4708 46.2956 27.7909 46.5462 26.8604 46.5462L23.3173 46.5462C22.7447 46.5462 22.3152 46.3314 22.0289 45.902C21.671 45.4725 21.5636 44.8999 21.7068 44.1841L24.0688 28.9381C24.1404 28.0792 24.4267 27.3276 24.9278 26.6835C25.4288 26.1108 26.1804 25.8245 27.1825 25.8245L34.2686 25.8245ZM51.4472 25.8245C51.9482 25.8245 52.3777 26.0035 52.7356 26.3614C53.0219 26.7192 53.165 27.1487 53.165 27.6497C53.165 28.2224 53.0577 28.795 52.8429 29.3676L47.1525 44.0767C46.7946 44.7925 46.401 45.3651 45.9715 45.7946C45.542 46.2956 44.8978 46.5462 44.0389 46.5462H40.4958C39.9232 46.5462 39.4938 46.3314 39.2074 45.902C38.8496 45.4725 38.7422 44.8999 38.8853 44.1841L41.2474 28.9381C41.319 28.0792 41.6053 27.3277 42.1063 26.6835C42.6074 26.1108 43.3231 25.8245 44.2536 25.8245L51.4472 25.8245Z" fill="#091242"/>
</g>
<defs>
<linearGradient id="paint0_linear_1_337" x1="-2.06535" y1="15.859" x2="89.5811" y2="22.3673" gradientUnits="userSpaceOnUse">
<stop stop-color="#FFB629"/>
<stop offset="0.507189" stop-color="#FFDA56"/>
<stop offset="1" stop-color="#FFD7A6"/>
</linearGradient>
</defs>
</svg>
